<mxfile host="app.diagrams.net" modified="2024-04-19T15:08:09.806Z" agent="Mozilla/5.0 (Windows NT 10.0; Win64; x64) AppleWebKit/537.36 (KHTML, like Gecko) Chrome/123.0.0.0 Safari/537.36 Edg/123.0.0.0" etag="hfFY9JMbLeEpsCR1BlvU" version="24.2.5" type="device">
  <diagram name="Página-1" id="WVmp2pQk49Cqd2bTrI5O">
    <mxGraphModel dx="1002" dy="535" grid="1" gridSize="10" guides="1" tooltips="1" connect="1" arrows="1" fold="1" page="1" pageScale="1" pageWidth="827" pageHeight="1169" math="0" shadow="0">
      <root>
        <mxCell id="0" />
        <mxCell id="1" parent="0" />
        <mxCell id="HahyfrMqMnk-RBZxCLah-35" style="edgeStyle=orthogonalEdgeStyle;rounded=0;orthogonalLoop=1;jettySize=auto;html=1;entryX=0;entryY=0.5;entryDx=0;entryDy=0;" edge="1" parent="1" source="HahyfrMqMnk-RBZxCLah-2" target="HahyfrMqMnk-RBZxCLah-34">
          <mxGeometry relative="1" as="geometry" />
        </mxCell>
        <mxCell id="HahyfrMqMnk-RBZxCLah-39" style="edgeStyle=orthogonalEdgeStyle;rounded=0;orthogonalLoop=1;jettySize=auto;html=1;entryX=0;entryY=0.5;entryDx=0;entryDy=0;" edge="1" parent="1" source="HahyfrMqMnk-RBZxCLah-2" target="HahyfrMqMnk-RBZxCLah-38">
          <mxGeometry relative="1" as="geometry" />
        </mxCell>
        <mxCell id="HahyfrMqMnk-RBZxCLah-40" style="edgeStyle=orthogonalEdgeStyle;rounded=0;orthogonalLoop=1;jettySize=auto;html=1;entryX=0;entryY=0.5;entryDx=0;entryDy=0;" edge="1" parent="1" source="HahyfrMqMnk-RBZxCLah-2" target="HahyfrMqMnk-RBZxCLah-3">
          <mxGeometry relative="1" as="geometry" />
        </mxCell>
        <mxCell id="HahyfrMqMnk-RBZxCLah-41" style="edgeStyle=orthogonalEdgeStyle;rounded=0;orthogonalLoop=1;jettySize=auto;html=1;entryX=0;entryY=0.5;entryDx=0;entryDy=0;" edge="1" parent="1" source="HahyfrMqMnk-RBZxCLah-2" target="HahyfrMqMnk-RBZxCLah-4">
          <mxGeometry relative="1" as="geometry" />
        </mxCell>
        <mxCell id="HahyfrMqMnk-RBZxCLah-50" style="edgeStyle=orthogonalEdgeStyle;rounded=0;orthogonalLoop=1;jettySize=auto;html=1;entryX=0;entryY=0.5;entryDx=0;entryDy=0;" edge="1" parent="1" source="HahyfrMqMnk-RBZxCLah-2" target="HahyfrMqMnk-RBZxCLah-44">
          <mxGeometry relative="1" as="geometry" />
        </mxCell>
        <mxCell id="HahyfrMqMnk-RBZxCLah-2" value="SCRUM" style="rounded=0;whiteSpace=wrap;html=1;" vertex="1" parent="1">
          <mxGeometry y="220" width="120" height="60" as="geometry" />
        </mxCell>
        <mxCell id="HahyfrMqMnk-RBZxCLah-3" value="PRINCIPIOS" style="rounded=0;whiteSpace=wrap;html=1;" vertex="1" parent="1">
          <mxGeometry x="200" y="130" width="120" height="60" as="geometry" />
        </mxCell>
        <mxCell id="HahyfrMqMnk-RBZxCLah-27" value="" style="edgeStyle=orthogonalEdgeStyle;rounded=0;orthogonalLoop=1;jettySize=auto;html=1;" edge="1" parent="1" source="HahyfrMqMnk-RBZxCLah-4" target="HahyfrMqMnk-RBZxCLah-26">
          <mxGeometry relative="1" as="geometry" />
        </mxCell>
        <mxCell id="HahyfrMqMnk-RBZxCLah-4" value="VALORES" style="rounded=0;whiteSpace=wrap;html=1;" vertex="1" parent="1">
          <mxGeometry x="200" y="250" width="120" height="60" as="geometry" />
        </mxCell>
        <mxCell id="HahyfrMqMnk-RBZxCLah-24" value="&lt;ul style=&quot;box-sizing: border-box; padding-left: 2em; margin-top: 0px; margin-bottom: 0px; color: rgb(99, 108, 118); font-family: -apple-system, BlinkMacSystemFont, &amp;quot;Segoe UI&amp;quot;, &amp;quot;Noto Sans&amp;quot;, Helvetica, Arial, sans-serif, &amp;quot;Apple Color Emoji&amp;quot;, &amp;quot;Segoe UI Emoji&amp;quot;; text-align: start; background-color: rgb(255, 255, 255);&quot;&gt;&lt;li style=&quot;box-sizing: border-box;&quot;&gt;&lt;font style=&quot;font-size: 11px;&quot;&gt;&lt;span style=&quot;box-sizing: border-box; font-weight: var(--base-text-weight-semibold, 600);&quot;&gt;Entrega de valor:&lt;/span&gt;&lt;font style=&quot;&quot;&gt;.&lt;/font&gt;&lt;/font&gt;&lt;/li&gt;&lt;li style=&quot;box-sizing: border-box; margin-top: 0.25em;&quot;&gt;&lt;font style=&quot;font-size: 11px;&quot;&gt;&lt;span style=&quot;box-sizing: border-box; font-weight: var(--base-text-weight-semibold, 600);&quot;&gt;Mejora continua&lt;/span&gt;&lt;font style=&quot;&quot;&gt;&amp;nbsp;productos.&lt;/font&gt;&lt;/font&gt;&lt;/li&gt;&lt;li style=&quot;box-sizing: border-box; margin-top: 0.25em;&quot;&gt;&lt;span style=&quot;box-sizing: border-box; font-weight: var(--base-text-weight-semibold, 600);&quot;&gt;&lt;font style=&quot;font-size: 11px;&quot;&gt;Desarrollo iterativo e incremental&lt;/font&gt;&lt;/span&gt;&lt;/li&gt;&lt;li style=&quot;box-sizing: border-box; margin-top: 0.25em;&quot;&gt;&lt;span style=&quot;box-sizing: border-box; font-weight: var(--base-text-weight-semibold, 600);&quot;&gt;&lt;font style=&quot;font-size: 11px;&quot;&gt;Ritmo de trabajo sostenible&lt;/font&gt;&lt;/span&gt;&lt;/li&gt;&lt;li style=&quot;box-sizing: border-box; margin-top: 0.25em;&quot;&gt;&lt;span style=&quot;box-sizing: border-box; font-weight: var(--base-text-weight-semibold, 600);&quot;&gt;&lt;font style=&quot;font-size: 11px;&quot;&gt;Atención continua a la excelencia&lt;/font&gt;&lt;/span&gt;&lt;/li&gt;&lt;li style=&quot;box-sizing: border-box; margin-top: 0.25em;&quot;&gt;&lt;span style=&quot;box-sizing: border-box; font-weight: var(--base-text-weight-semibold, 600);&quot;&gt;&lt;font style=&quot;font-size: 11px;&quot;&gt;Operativa visible&lt;/font&gt;&lt;/span&gt;&lt;/li&gt;&lt;li style=&quot;box-sizing: border-box; margin-top: 0.25em;&quot;&gt;&lt;span style=&quot;box-sizing: border-box; font-weight: var(--base-text-weight-semibold, 600);&quot;&gt;&lt;font style=&quot;font-size: 11px;&quot;&gt;Cadencia y sincronización global&lt;/font&gt;&lt;/span&gt;&lt;/li&gt;&lt;li style=&quot;box-sizing: border-box; margin-top: 0.25em;&quot;&gt;&lt;span style=&quot;box-sizing: border-box; font-weight: var(--base-text-weight-semibold, 600);&quot;&gt;&lt;font style=&quot;font-size: 11px;&quot;&gt;Personas sobre procesos&lt;/font&gt;&lt;/span&gt;&lt;/li&gt;&lt;/ul&gt;" style="rounded=0;whiteSpace=wrap;html=1;" vertex="1" parent="1">
          <mxGeometry x="354" y="80" width="230" height="140" as="geometry" />
        </mxCell>
        <mxCell id="HahyfrMqMnk-RBZxCLah-25" style="edgeStyle=orthogonalEdgeStyle;rounded=0;orthogonalLoop=1;jettySize=auto;html=1;exitX=1;exitY=0.5;exitDx=0;exitDy=0;entryX=0.004;entryY=0.619;entryDx=0;entryDy=0;entryPerimeter=0;" edge="1" parent="1" source="HahyfrMqMnk-RBZxCLah-3" target="HahyfrMqMnk-RBZxCLah-24">
          <mxGeometry relative="1" as="geometry" />
        </mxCell>
        <mxCell id="HahyfrMqMnk-RBZxCLah-26" value="&lt;ul style=&quot;box-sizing: border-box; padding-left: 2em; margin-top: 0px; margin-bottom: 0px; color: rgb(99, 108, 118); font-family: -apple-system, BlinkMacSystemFont, &amp;quot;Segoe UI&amp;quot;, &amp;quot;Noto Sans&amp;quot;, Helvetica, Arial, sans-serif, &amp;quot;Apple Color Emoji&amp;quot;, &amp;quot;Segoe UI Emoji&amp;quot;; text-align: start; background-color: rgb(255, 255, 255);&quot;&gt;&lt;li style=&quot;box-sizing: border-box;&quot;&gt;&lt;span style=&quot;&quot;&gt;&lt;font style=&quot;font-size: 11px;&quot;&gt;&lt;b&gt;Asertividad, valoración del talento, claridad, confianza, estructura desjerarquizada, propósito común&lt;/b&gt;&lt;/font&gt;&lt;/span&gt;&lt;br&gt;&lt;/li&gt;&lt;/ul&gt;" style="rounded=0;whiteSpace=wrap;html=1;" vertex="1" parent="1">
          <mxGeometry x="390" y="250" width="216" height="60" as="geometry" />
        </mxCell>
        <mxCell id="HahyfrMqMnk-RBZxCLah-37" value="" style="edgeStyle=orthogonalEdgeStyle;rounded=0;orthogonalLoop=1;jettySize=auto;html=1;" edge="1" parent="1" source="HahyfrMqMnk-RBZxCLah-34" target="HahyfrMqMnk-RBZxCLah-36">
          <mxGeometry relative="1" as="geometry" />
        </mxCell>
        <mxCell id="HahyfrMqMnk-RBZxCLah-34" value="EVENTOS" style="rounded=0;whiteSpace=wrap;html=1;" vertex="1" parent="1">
          <mxGeometry x="200" y="350" width="120" height="60" as="geometry" />
        </mxCell>
        <mxCell id="HahyfrMqMnk-RBZxCLah-36" value="&lt;ul style=&quot;box-sizing: border-box; padding-left: 2em; margin-top: 0px; margin-bottom: 0px; color: rgb(99, 108, 118); font-family: -apple-system, BlinkMacSystemFont, &amp;quot;Segoe UI&amp;quot;, &amp;quot;Noto Sans&amp;quot;, Helvetica, Arial, sans-serif, &amp;quot;Apple Color Emoji&amp;quot;, &amp;quot;Segoe UI Emoji&amp;quot;; text-align: start; background-color: rgb(255, 255, 255);&quot;&gt;&lt;li style=&quot;box-sizing: border-box;&quot;&gt;&lt;span style=&quot;box-sizing: border-box; font-weight: var(--base-text-weight-semibold, 600);&quot;&gt;Sprint en Scrum&lt;/span&gt;&amp;nbsp;&lt;/li&gt;&lt;li style=&quot;box-sizing: border-box; margin-top: 0.25em;&quot;&gt;&lt;span style=&quot;box-sizing: border-box; font-weight: var(--base-text-weight-semibold, 600);&quot;&gt;Reunión de Planificación del Sprint&lt;/span&gt;&amp;nbsp;&lt;/li&gt;&lt;li style=&quot;box-sizing: border-box; margin-top: 0.25em;&quot;&gt;&lt;span style=&quot;box-sizing: border-box; font-weight: var(--base-text-weight-semibold, 600);&quot;&gt;Scrum Diario&lt;/span&gt;&lt;font&gt;&amp;nbsp;.&lt;/font&gt;&lt;/li&gt;&lt;li style=&quot;box-sizing: border-box; margin-top: 0.25em;&quot;&gt;&lt;span style=&quot;box-sizing: border-box; font-weight: var(--base-text-weight-semibold, 600);&quot;&gt;Revisión del Sprint&lt;/span&gt; y la &lt;span style=&quot;box-sizing: border-box; font-weight: var(--base-text-weight-semibold, 600);&quot;&gt;Retrospectiva del Sprint&lt;/span&gt;&lt;/li&gt;&lt;/ul&gt;" style="rounded=0;whiteSpace=wrap;html=1;" vertex="1" parent="1">
          <mxGeometry x="400" y="340" width="286" height="80" as="geometry" />
        </mxCell>
        <mxCell id="HahyfrMqMnk-RBZxCLah-43" value="" style="edgeStyle=orthogonalEdgeStyle;rounded=0;orthogonalLoop=1;jettySize=auto;html=1;" edge="1" parent="1" source="HahyfrMqMnk-RBZxCLah-38" target="HahyfrMqMnk-RBZxCLah-42">
          <mxGeometry relative="1" as="geometry" />
        </mxCell>
        <mxCell id="HahyfrMqMnk-RBZxCLah-38" value="ARTEFACTOS" style="rounded=0;whiteSpace=wrap;html=1;" vertex="1" parent="1">
          <mxGeometry x="200" y="460" width="120" height="60" as="geometry" />
        </mxCell>
        <mxCell id="HahyfrMqMnk-RBZxCLah-42" value="&lt;ul style=&quot;box-sizing: border-box; padding-left: 2em; margin-top: 0px; margin-bottom: 0px; color: rgb(99, 108, 118); font-family: -apple-system, BlinkMacSystemFont, &amp;quot;Segoe UI&amp;quot;, &amp;quot;Noto Sans&amp;quot;, Helvetica, Arial, sans-serif, &amp;quot;Apple Color Emoji&amp;quot;, &amp;quot;Segoe UI Emoji&amp;quot;; text-align: start; background-color: rgb(255, 255, 255);&quot;&gt;&lt;li style=&quot;box-sizing: border-box;&quot;&gt;&lt;span style=&quot;box-sizing: border-box; font-weight: var(--base-text-weight-semibold, 600);&quot;&gt;Pila del Producto&lt;/span&gt;&amp;nbsp;&lt;/li&gt;&lt;li style=&quot;box-sizing: border-box; margin-top: 0.25em;&quot;&gt;&lt;span style=&quot;box-sizing: border-box; font-weight: var(--base-text-weight-semibold, 600);&quot;&gt;Pila del Sprint&lt;/span&gt;&amp;nbsp;&lt;/li&gt;&lt;li style=&quot;box-sizing: border-box; margin-top: 0.25em;&quot;&gt;&lt;span style=&quot;box-sizing: border-box; font-weight: var(--base-text-weight-semibold, 600);&quot;&gt;Incremento&lt;/span&gt;&lt;/li&gt;&lt;/ul&gt;" style="rounded=0;whiteSpace=wrap;html=1;" vertex="1" parent="1">
          <mxGeometry x="390" y="460" width="130" height="60" as="geometry" />
        </mxCell>
        <mxCell id="HahyfrMqMnk-RBZxCLah-48" value="" style="edgeStyle=orthogonalEdgeStyle;rounded=0;orthogonalLoop=1;jettySize=auto;html=1;" edge="1" parent="1" source="HahyfrMqMnk-RBZxCLah-44" target="HahyfrMqMnk-RBZxCLah-46">
          <mxGeometry relative="1" as="geometry" />
        </mxCell>
        <mxCell id="HahyfrMqMnk-RBZxCLah-44" value="ROL" style="rounded=0;whiteSpace=wrap;html=1;" vertex="1" parent="1">
          <mxGeometry x="200" y="555" width="120" height="60" as="geometry" />
        </mxCell>
        <mxCell id="HahyfrMqMnk-RBZxCLah-46" value="&lt;ul style=&quot;box-sizing: border-box; padding-left: 2em; margin-top: 0px; margin-bottom: 0px; color: rgb(99, 108, 118); font-family: -apple-system, BlinkMacSystemFont, &amp;quot;Segoe UI&amp;quot;, &amp;quot;Noto Sans&amp;quot;, Helvetica, Arial, sans-serif, &amp;quot;Apple Color Emoji&amp;quot;, &amp;quot;Segoe UI Emoji&amp;quot;; text-align: start; background-color: rgb(255, 255, 255);&quot;&gt;&lt;li style=&quot;box-sizing: border-box;&quot;&gt;&lt;b&gt;El propietario del producto&amp;nbsp;&lt;/b&gt;&lt;/li&gt;&lt;li style=&quot;box-sizing: border-box; margin-top: 0.25em;&quot;&gt;&lt;b&gt;Desarrolladores &lt;/b&gt;&lt;/li&gt;&lt;li style=&quot;box-sizing: border-box; margin-top: 0.25em;&quot;&gt;&lt;b&gt;El Scrum Master&lt;/b&gt;&lt;/li&gt;&lt;/ul&gt;" style="rounded=0;whiteSpace=wrap;html=1;" vertex="1" parent="1">
          <mxGeometry x="420" y="555" width="210" height="60" as="geometry" />
        </mxCell>
      </root>
    </mxGraphModel>
  </diagram>
</mxfile>
